<svg width="24.000000" height="24.000000" viewBox="0 0 24 24" fill="none" xmlns="http://www.w3.org/2000/svg" xmlns:xlink="http://www.w3.org/1999/xlink">
	<desc>
			Created with Pixso.
	</desc>
	<defs/>
	<mask id="mask6_91" mask-type="alpha" maskUnits="userSpaceOnUse" x="0.000000" y="-0.371948" width="24.000000" height="24.000000">
		<rect id="Rectangle 10" y="-0.371948" width="24.000000" height="24.000000" fill="#C4C4C4" fill-opacity="1.000000"/>
	</mask>
	<g mask="url(#mask6_91)">
		<path id="Vector" d="M3.25 1.62L20.25 1.62C21.49 1.62 22.5 2.63 22.5 3.87L22.5 19.38C22.5 20.62 21.49 21.62 20.25 21.62L3.25 21.62C2.01 21.62 1 20.62 1 19.38L1 3.87C1 2.63 2.01 1.62 3.25 1.62ZM20.25 20.12C20.66 20.12 21 19.79 21 19.38L21 3.87C21 3.46 20.66 3.12 20.25 3.12L3.25 3.12C2.83 3.12 2.5 3.46 2.5 3.87L2.5 19.38C2.5 19.79 2.83 20.12 3.25 20.12L20.25 20.12ZM9.04 10.5C8.74 10.2 8.24 10 7.84 10C6.94 10 6.24 10.8 6.24 11.6C6.24 12.5 6.94 13.2 7.84 13.2C8.14 13.2 8.44 13.1 8.64 13L8.64 12.4L7.44 12.4L7.44 11.2L10.24 11.2L10.24 13.7C9.64 14.4 8.84 14.8 7.84 14.8C6.04 14.8 4.64 13.4 4.64 11.6C4.64 9.8 6.04 8.4 7.84 8.4C8.74 8.4 9.64 8.8 10.24 9.5L9.04 10.5ZM13.14 8.4L11.45 8.4L11.45 14.8L13.14 14.8L13.14 8.4ZM18.74 8.4L18.74 10.1L16.04 10.1L16.04 11.1L18.04 11.1L18.04 12.8L16.04 12.8L16.04 14.8L14.34 14.8L14.34 8.4L18.74 8.4Z" fill="#1D9BF0" fill-opacity="1.000000" fill-rule="evenodd"/>
	</g>
</svg>
