<svg width="28.000000" height="28.000000" viewBox="0 0 28 28" fill="none" xmlns="http://www.w3.org/2000/svg" xmlns:xlink="http://www.w3.org/1999/xlink">
	<desc>
			Created with Pixso.
	</desc>
	<defs/>
	<mask id="mask6_146" mask-type="alpha" maskUnits="userSpaceOnUse" x="0.000000" y="0.000000" width="28.000000" height="28.000000">
		<rect id="Rectangle 9" width="28.000000" height="28.000000" fill="#C4C4C4" fill-opacity="1.000000"/>
	</mask>
	<g mask="url(#mask6_146)">
		<path id="Vector" d="M22.45 3.5L5.54 3.5C3.77 3.5 2.33 4.93 2.33 6.71L2.33 21.28C2.33 23.05 3.77 24.5 5.54 24.5L22.45 24.5C24.22 24.5 25.66 23.05 25.66 21.28L25.66 6.71C25.66 4.93 24.22 3.5 22.45 3.5ZM5.54 5.25L22.45 5.25C23.26 5.25 23.91 5.9 23.91 6.7L23.91 7.54L14.52 13.8C14.2 14.01 13.79 14.01 13.47 13.8L4.08 7.54L4.08 6.7C4.08 5.9 4.73 5.25 5.54 5.25ZM22.45 22.74L5.54 22.74C4.73 22.74 4.08 22.09 4.08 21.28L4.08 9.59L12.53 15.22C12.97 15.52 13.48 15.67 14 15.67C14.51 15.67 15.02 15.52 15.47 15.22L23.91 9.59L23.91 21.28C23.91 22.09 23.26 22.74 22.45 22.74L22.45 22.74Z" fill="#000000" fill-opacity="1.000000" fill-rule="nonzero"/>
	</g>
</svg>
