<svg width="28.000000" height="28.000000" viewBox="0 0 28 28" fill="none" xmlns="http://www.w3.org/2000/svg" xmlns:xlink="http://www.w3.org/1999/xlink">
	<desc>
			Created with Pixso.
	</desc>
	<defs/>
	<mask id="mask6_134" mask-type="alpha" maskUnits="userSpaceOnUse" x="0.000000" y="0.000000" width="28.000000" height="28.000000">
		<rect id="Rectangle 6" width="28.000000" height="28.000000" fill="#C4C4C4" fill-opacity="1.000000"/>
	</mask>
	<g mask="url(#mask6_134)">
		<path id="Vector" d="M26.46 8.83L14.67 2.47C14.32 2.28 13.9 2.28 13.56 2.47L1.77 8.83C1.21 9.14 1 9.85 1.3 10.41C1.51 10.8 1.91 11.02 2.33 11.02C2.52 11.02 2.71 10.98 2.88 10.88L3.74 10.42L5.59 23.55C5.85 24.96 7.12 25.95 8.7 25.95L19.53 25.95C21.1 25.95 22.38 24.96 22.63 23.52L24.48 10.42L25.34 10.89C25.91 11.19 26.62 10.98 26.92 10.41C27.23 9.85 27.02 9.14 26.45 8.83L26.46 8.83ZM14.11 18.26C12.02 18.26 10.32 16.57 10.32 14.47C10.32 12.38 12.02 10.68 14.11 10.68C16.21 10.68 17.9 12.38 17.9 14.47C17.9 16.57 16.21 18.26 14.11 18.26Z" fill="#000000" fill-opacity="1.000000" fill-rule="nonzero"/>
	</g>
</svg>
