<svg width="17.000000" height="4.000000" viewBox="0 0 17 4" fill="none" xmlns="http://www.w3.org/2000/svg" xmlns:xlink="http://www.w3.org/1999/xlink">
	<desc>
			Created with Pixso.
	</desc>
	<defs/>
	<path id="Vector" d="M2.92 2C2.92 3.1 2.04 4 0.96 4C-0.13 4 -1 3.1 -1 2C-1 0.89 -0.13 0 0.96 0C2.04 0 2.92 0.89 2.92 2ZM9.46 2C9.46 3.1 8.58 4 7.5 4C6.41 4 5.53 3.1 5.53 2C5.53 0.89 6.41 0 7.5 0C8.58 0 9.46 0.89 9.46 2ZM14.03 4C15.12 4 16 3.1 16 2C16 0.89 15.12 0 14.03 0C12.95 0 12.07 0.89 12.07 2C12.07 3.1 12.95 4 14.03 4Z" fill="#000000" fill-opacity="1.000000" fill-rule="evenodd"/>
</svg>
