<svg width="28.000000" height="28.000000" viewBox="0 0 28 28" fill="none" xmlns="http://www.w3.org/2000/svg" xmlns:xlink="http://www.w3.org/1999/xlink">
	<desc>
			Created with Pixso.
	</desc>
	<defs/>
	<mask id="mask6_159" mask-type="alpha" maskUnits="userSpaceOnUse" x="0.000000" y="0.000000" width="28.000000" height="28.000000">
		<rect id="Rectangle 20" width="28.000000" height="28.000000" fill="#C4C4C4" fill-opacity="1.000000"/>
	</mask>
	<g mask="url(#mask6_159)">
		<path id="Vector" d="M13.24 14.18C14.82 14.18 16.59 14.01 17.72 12.72C18.67 11.63 18.98 9.95 18.66 7.59C18.21 4.3 16.19 2.33 13.24 2.33C10.29 2.33 8.26 4.3 7.82 7.59C7.5 9.95 7.81 11.63 8.76 12.72C9.89 14.01 11.66 14.18 13.24 14.18ZM9.55 7.83C9.74 6.43 10.47 4.08 13.24 4.08C16.01 4.08 16.74 6.43 16.92 7.83C17.17 9.63 16.99 10.89 16.4 11.56C15.87 12.17 14.92 12.43 13.24 12.43C11.55 12.43 10.61 12.17 10.08 11.56C9.48 10.89 9.31 9.63 9.55 7.83ZM22.9 22.84C21.87 18.72 17.9 15.85 13.24 15.85C8.57 15.85 4.6 18.72 3.58 22.84C3.38 23.65 3.55 24.47 4.04 25.1C4.51 25.71 5.25 26.06 6.06 26.06L20.42 26.06C21.22 26.06 21.96 25.71 22.44 25.1C22.93 24.47 23.1 23.65 22.9 22.84L22.9 22.84ZM21.06 24.02C20.91 24.21 20.69 24.31 20.42 24.31L6.06 24.31C5.79 24.31 5.56 24.21 5.42 24.02C5.26 23.82 5.21 23.54 5.28 23.26C6.1 19.93 9.38 17.6 13.24 17.6C17.1 17.6 20.37 19.93 21.2 23.26C21.27 23.54 21.22 23.82 21.06 24.02Z" fill="#000000" fill-opacity="1.000000" fill-rule="nonzero"/>
	</g>
</svg>
