<svg width="28.000000" height="28.000000" viewBox="0 0 28 28" fill="none" xmlns="http://www.w3.org/2000/svg" xmlns:xlink="http://www.w3.org/1999/xlink">
	<desc>
			Created with Pixso.
	</desc>
	<defs/>
	<mask id="mask6_154" mask-type="alpha" maskUnits="userSpaceOnUse" x="0.000000" y="0.000000" width="28.000000" height="28.000000">
		<rect id="Rectangle 9" width="28.000000" height="28.000000" fill="#C4C4C4" fill-opacity="1.000000"/>
	</mask>
	<g mask="url(#mask6_154)">
		<path id="Vector" d="M23.04 25.66L4.95 25.66C3.51 25.66 2.33 24.48 2.33 23.04L2.33 4.95C2.33 3.51 3.51 2.33 4.95 2.33L23.04 2.33C24.48 2.33 25.66 3.51 25.66 4.95L25.66 23.04C25.66 24.48 24.48 25.66 23.04 25.66ZM4.95 4.08C4.47 4.08 4.08 4.47 4.08 4.95L4.08 23.04C4.08 23.52 4.47 23.91 4.95 23.91L23.04 23.91C23.52 23.91 23.91 23.52 23.91 23.04L23.91 4.95C23.91 4.47 23.52 4.08 23.04 4.08L4.95 4.08Z" fill="#000000" fill-opacity="1.000000" fill-rule="nonzero"/>
	</g>
	<g mask="url(#mask6_154)">
		<path id="Vector" d="M19.54 9.91L7.87 9.91C7.39 9.91 7 9.52 7 9.04C7 8.55 7.39 8.16 7.87 8.16L19.54 8.16C20.02 8.16 20.41 8.55 20.41 9.04C20.41 9.52 20.02 9.91 19.54 9.91ZM19.54 14.71L7.87 14.71C7.39 14.71 7 14.31 7 13.83C7 13.35 7.39 12.96 7.87 12.96L19.54 12.96C20.02 12.96 20.41 13.35 20.41 13.83C20.41 14.31 20.02 14.71 19.54 14.71ZM13.7 19.5L7.87 19.5C7.39 19.5 7 19.11 7 18.63C7 18.14 7.39 17.75 7.87 17.75L13.7 17.75C14.19 17.75 14.58 18.14 14.58 18.63C14.58 19.11 14.19 19.5 13.7 19.5Z" fill="#000000" fill-opacity="1.000000" fill-rule="nonzero"/>
	</g>
</svg>
