<svg width="23.000000" height="21.000000" viewBox="0 0 23 21" fill="none" xmlns="http://www.w3.org/2000/svg" xmlns:xlink="http://www.w3.org/1999/xlink">
	<desc>
			Created with Pixso.
	</desc>
	<defs/>
	<path id="Vector" d="M21.77 8.5L16.15 6.31L13.99 -0.19C13.89 -0.5 13.6 -0.71 13.28 -0.71C12.96 -0.71 12.67 -0.5 12.56 -0.19L10.41 6.31L4.79 8.5C4.5 8.61 4.31 8.89 4.31 9.2C4.31 9.51 4.5 9.78 4.79 9.9L10.41 12.09L12.57 18.59C12.67 18.9 12.96 19.1 13.28 19.1C13.6 19.1 13.89 18.9 13.99 18.59L16.15 12.09L21.77 9.9C22.06 9.79 22.25 9.51 22.25 9.2C22.25 8.89 22.06 8.61 21.77 8.5L21.77 8.5ZM15.28 10.82C15.07 10.9 14.91 11.07 14.84 11.28L13.28 15.98L11.72 11.28C11.65 11.07 11.49 10.9 11.28 10.82L7.12 9.2L11.28 7.58C11.49 7.5 11.65 7.33 11.72 7.12L13.28 2.42L14.84 7.12C14.91 7.33 15.07 7.5 15.28 7.58L19.43 9.2L15.28 10.82L15.28 10.82ZM5.66 1.81L3.78 1.81L3.78 0.04C3.78 -0.37 3.44 -0.71 3.03 -0.71C2.62 -0.71 2.28 -0.37 2.28 0.04L2.28 1.81L0.5 1.81C0.08 1.81 -0.25 2.14 -0.25 2.56C-0.25 2.97 0.08 3.31 0.5 3.31L2.28 3.31L2.28 5.07C2.28 5.48 2.61 5.82 3.03 5.82C3.44 5.82 3.78 5.48 3.78 5.07L3.78 3.31L5.66 3.31C6.07 3.31 6.41 2.97 6.41 2.56C6.41 2.14 6.07 1.81 5.66 1.81L5.66 1.81ZM8.19 17.43L7.09 17.43L7.09 16.41C7.09 16 6.76 15.66 6.34 15.66C5.93 15.66 5.59 16 5.59 16.41L5.59 17.43L4.56 17.43C4.15 17.43 3.81 17.77 3.81 18.18C3.81 18.59 4.15 18.93 4.56 18.93L5.59 18.93L5.59 19.95C5.59 20.36 5.93 20.7 6.34 20.7C6.76 20.7 7.09 20.36 7.09 19.95L7.09 18.93L8.19 18.93C8.61 18.93 8.94 18.59 8.94 18.18C8.94 17.77 8.61 17.43 8.19 17.43Z" fill="#000000" fill-opacity="1.000000" fill-rule="nonzero"/>
</svg>
