<svg width="24.000000" height="24.000000" viewBox="0 0 24 24" fill="none" xmlns="http://www.w3.org/2000/svg" xmlns:xlink="http://www.w3.org/1999/xlink">
	<desc>
			Created with Pixso.
	</desc>
	<defs/>
	<mask id="mask6_95" mask-type="alpha" maskUnits="userSpaceOnUse" x="0.000000" y="-0.371948" width="24.000000" height="24.000000">
		<rect id="Rectangle 10" y="-0.371948" width="24.000000" height="24.000000" fill="#C4C4C4" fill-opacity="1.000000"/>
	</mask>
	<g mask="url(#mask6_95)">
		<path id="Vector" d="M1 11.37C1 17.3 5.82 22.12 11.75 22.12C17.67 22.12 22.5 17.3 22.5 11.37C22.5 5.45 17.67 0.62 11.75 0.62C5.82 0.62 1 5.45 1 11.37ZM2.5 11.37C2.5 6.27 6.65 2.12 11.75 2.12C16.85 2.12 21 6.27 21 11.37C21 16.47 16.85 20.62 11.75 20.62C6.65 20.62 2.5 16.47 2.5 11.37ZM10.49 8.83C10.49 9.65 9.82 10.31 9.01 10.31C8.19 10.31 7.53 9.65 7.53 8.83C7.53 8.01 8.19 7.35 9.01 7.35C9.82 7.35 10.49 8.01 10.49 8.83ZM14.48 10.31C15.3 10.31 15.96 9.65 15.96 8.83C15.96 8.01 15.3 7.35 14.48 7.35C13.67 7.35 13 8.01 13 8.83C13 9.65 13.67 10.31 14.48 10.31ZM7.09 13.94C8.11 15.54 9.85 16.49 11.75 16.49L11.75 16.49C13.64 16.49 15.38 15.54 16.4 13.95C16.63 13.6 16.53 13.14 16.18 12.91C15.83 12.69 15.37 12.79 15.14 13.14C14.39 14.3 13.13 14.99 11.75 14.99C10.37 14.99 9.1 14.3 8.35 13.14C8.13 12.79 7.66 12.68 7.32 12.91C6.97 13.13 6.87 13.6 7.09 13.94Z" fill="#1D9BF0" fill-opacity="1.000000" fill-rule="evenodd"/>
	</g>
</svg>
