<svg width="24.000000" height="24.000000" viewBox="0 0 24 24" fill="none" xmlns="http://www.w3.org/2000/svg" xmlns:xlink="http://www.w3.org/1999/xlink">
	<desc>
			Created with Pixso.
	</desc>
	<defs/>
	<mask id="mask6_269" mask-type="alpha" maskUnits="userSpaceOnUse" x="0.000000" y="0.000000" width="24.000000" height="24.000000">
		<rect id="Rectangle 10" width="24.000000" height="24.000000" fill="#C4C4C4" fill-opacity="1.000000"/>
	</mask>
	<g mask="url(#mask6_269)">
		<path id="Vector" d="M13.95 2.01L9.8 2L9.8 2C5.42 2 2 5.42 2 9.8C2 13.9 5.18 17 9.46 17.17L9.46 21C9.46 21.1 9.5 21.28 9.58 21.4C9.72 21.62 9.96 21.75 10.21 21.75C10.35 21.75 10.49 21.71 10.61 21.63C10.88 21.46 17.09 17.49 18.7 16.12C20.6 14.51 21.74 12.15 21.75 9.81L21.75 9.79C21.74 5.42 18.31 2.01 13.95 2L13.95 2.01ZM17.73 14.98C16.6 15.94 12.87 18.38 10.96 19.62L10.96 16.43C10.96 16.02 10.63 15.68 10.21 15.68L9.81 15.68C6.15 15.68 3.5 13.21 3.5 9.8C3.5 6.26 6.26 3.5 9.8 3.5L13.94 3.51L13.95 3.51C17.48 3.51 20.25 6.27 20.25 9.8C20.24 11.71 19.3 13.65 17.73 14.98L17.73 14.98Z" fill="#536471" fill-opacity="1.000000" fill-rule="nonzero"/>
	</g>
</svg>
