<svg width="28.000000" height="28.000000" viewBox="0 0 28 28" fill="none" xmlns="http://www.w3.org/2000/svg" xmlns:xlink="http://www.w3.org/1999/xlink">
	<desc>
			Created with Pixso.
	</desc>
	<defs/>
	<mask id="mask6_138" mask-type="alpha" maskUnits="userSpaceOnUse" x="0.000000" y="0.000000" width="28.000000" height="28.000000">
		<rect id="Rectangle 7" width="28.000000" height="28.000000" fill="#C4C4C4" fill-opacity="1.000000"/>
	</mask>
	<g mask="url(#mask6_138)">
		<path id="Vector" d="M24.2 9.43L19.62 9.43L20.05 4.44C20.09 3.96 19.74 3.54 19.26 3.5C18.77 3.46 18.35 3.81 18.31 4.29L17.86 9.43L10.49 9.43L10.92 4.45C10.96 3.96 10.61 3.54 10.13 3.5C9.64 3.46 9.22 3.81 9.18 4.29L8.73 9.43L4.12 9.43C3.63 9.43 3.24 9.82 3.24 10.3C3.24 10.78 3.63 11.18 4.12 11.18L8.58 11.18L7.94 18.56L3.2 18.56C2.72 18.56 2.33 18.95 2.33 19.43C2.33 19.92 2.72 20.31 3.2 20.31L7.79 20.31L7.35 25.29C7.31 25.77 7.67 26.2 8.15 26.24L8.23 26.24C8.68 26.24 9.06 25.9 9.1 25.44L9.54 20.31L16.92 20.31L16.49 25.29C16.44 25.77 16.8 26.2 17.28 26.24L17.36 26.24C17.81 26.24 18.19 25.9 18.23 25.44L18.67 20.31L23.29 20.31C23.77 20.31 24.17 19.92 24.17 19.44C24.17 18.95 23.77 18.56 23.29 18.56L18.82 18.56L19.47 11.18L24.2 11.18C24.69 11.18 25.08 10.79 25.08 10.3C25.08 9.82 24.69 9.43 24.2 9.43ZM17.07 18.56L9.7 18.56L10.34 11.18L17.71 11.18L17.07 18.56Z" fill="#000000" fill-opacity="1.000000" fill-rule="nonzero"/>
	</g>
</svg>
