<svg width="28.000000" height="28.000000" viewBox="0 0 28 28" fill="none" xmlns="http://www.w3.org/2000/svg" xmlns:xlink="http://www.w3.org/1999/xlink">
	<desc>
			Created with Pixso.
	</desc>
	<defs/>
	<mask id="mask6_150" mask-type="alpha" maskUnits="userSpaceOnUse" x="0.000000" y="0.000000" width="28.000000" height="28.000000">
		<rect id="Rectangle 9" width="28.000000" height="28.000000" fill="#C4C4C4" fill-opacity="1.000000"/>
	</mask>
	<g mask="url(#mask6_150)">
		<path id="Vector" d="M22.8 25.84C22.62 25.84 22.44 25.78 22.29 25.67L13.59 19.34L4.89 25.67C4.62 25.86 4.27 25.89 3.97 25.74C3.68 25.59 3.5 25.29 3.5 24.96L3.5 4.95C3.5 3.51 4.67 2.33 6.12 2.33L21.05 2.33C22.5 2.33 23.68 3.51 23.68 4.95L23.68 24.96C23.68 25.29 23.49 25.59 23.2 25.74C23.07 25.81 22.94 25.84 22.8 25.84L22.8 25.84ZM13.59 17.38C13.77 17.38 13.95 17.43 14.1 17.55L21.93 23.24L21.93 4.95C21.93 4.47 21.54 4.08 21.05 4.08L6.12 4.08C5.64 4.08 5.25 4.47 5.25 4.95L5.25 23.24L13.07 17.55C13.23 17.43 13.41 17.38 13.59 17.38Z" fill="#000000" fill-opacity="1.000000" fill-rule="nonzero"/>
	</g>
</svg>
