<svg width="24.000000" height="24.000000" viewBox="0 0 24 24" fill="none" xmlns="http://www.w3.org/2000/svg" xmlns:xlink="http://www.w3.org/1999/xlink">
	<desc>
			Created with Pixso.
	</desc>
	<defs/>
	<mask id="mask19_279" mask-type="alpha" maskUnits="userSpaceOnUse" x="0.000000" y="0.000000" width="24.000000" height="24.000000">
		<rect id="Rectangle 9" width="24.000000" height="24.000000" fill="#C4C4C4" fill-opacity="1.000000"/>
	</mask>
	<g mask="url(#mask19_279)">
		<path id="Vector" d="M12.05 21.91L12.03 21.91C9.45 21.86 2 15.13 2 8.75C2 5.69 4.52 3 7.4 3C9.69 3 11.23 4.58 12.04 5.72C12.86 4.58 14.4 3 16.69 3C19.57 3 22.09 5.69 22.09 8.75C22.09 15.13 14.64 21.86 12.06 21.91L12.05 21.91L12.05 21.91ZM7.4 4.5C5.32 4.5 3.5 6.48 3.5 8.75C3.5 14.49 10.53 20.35 12.05 20.41C13.56 20.35 20.6 14.49 20.6 8.75C20.6 6.48 18.77 4.5 16.69 4.5C14.17 4.5 12.75 7.43 12.74 7.46C12.51 8.02 11.59 8.02 11.35 7.46C11.34 7.43 9.93 4.5 7.4 4.5L7.4 4.5Z" fill="#536471" fill-opacity="1.000000" fill-rule="nonzero"/>
	</g>
</svg>
