<svg width="24.000000" height="24.000000" viewBox="0 0 24 24" fill="none" xmlns="http://www.w3.org/2000/svg" xmlns:xlink="http://www.w3.org/1999/xlink">
	<desc>
			Created with Pixso.
	</desc>
	<defs/>
	<mask id="mask6_89" mask-type="alpha" maskUnits="userSpaceOnUse" x="0.000000" y="-0.371948" width="24.000000" height="24.000000">
		<rect id="Rectangle 10" y="-0.371948" width="24.000000" height="24.000000" fill="#C4C4C4" fill-opacity="1.000000"/>
	</mask>
	<g mask="url(#mask6_89)">
		<path id="Vector" d="M4.25 1.62L19.75 1.62C20.99 1.62 22 2.63 22 3.87L22 19.37C22 20.61 20.99 21.62 19.75 21.62L4.25 21.62C3.01 21.62 2 20.61 2 19.37L2 3.87C2 2.63 3.01 1.62 4.25 1.62ZM19.75 3.12L4.25 3.12C3.83 3.12 3.5 3.46 3.5 3.87L3.5 17.27L8.38 12.28C8.52 12.13 8.72 12.02 8.91 12.05C9.11 12.05 9.3 12.13 9.44 12.27L11.26 14.08L15.57 9.7C15.71 9.55 15.9 9.47 16.1 9.47L16.11 9.47C16.31 9.47 16.5 9.55 16.64 9.69L20.5 13.55L20.5 3.87C20.5 3.46 20.16 3.12 19.75 3.12ZM10.41 7.93C10.41 8.78 9.72 9.47 8.86 9.47C8.01 9.47 7.32 8.78 7.32 7.93C7.32 7.08 8.01 6.39 8.86 6.39C9.72 6.39 10.41 7.08 10.41 7.93ZM17.33 20.12L19.75 20.12C20.16 20.12 20.5 19.79 20.5 19.37L20.5 15.67L16.11 11.29L12.32 15.14L17.33 20.12ZM8.92 13.87L3.5 19.4C3.52 19.8 3.84 20.12 4.25 20.12L15.2 20.12L8.92 13.87Z" fill="#1D9BF0" fill-opacity="1.000000" fill-rule="evenodd"/>
	</g>
</svg>
