<svg width="28.000000" height="28.000000" viewBox="0 0 28 28" fill="none" xmlns="http://www.w3.org/2000/svg" xmlns:xlink="http://www.w3.org/1999/xlink">
	<desc>
			Created with Pixso.
	</desc>
	<defs/>
	<mask id="mask6_142" mask-type="alpha" maskUnits="userSpaceOnUse" x="0.000000" y="0.000000" width="28.000000" height="28.000000">
		<rect id="Rectangle 9" width="28.000000" height="28.000000" fill="#C4C4C4" fill-opacity="1.000000"/>
	</mask>
	<g mask="url(#mask6_142)">
		<path id="Vector" d="M25.31 19.29C25.29 19.27 22.81 17.38 22.86 12.25C22.88 9.3 21.91 6.68 20.12 4.86C18.51 3.24 16.34 2.34 14 2.33L13.99 2.33C11.65 2.34 9.48 3.24 7.87 4.86C6.08 6.68 5.11 9.3 5.13 12.25C5.18 17.31 2.78 19.22 2.68 19.29C2.38 19.51 2.25 19.91 2.37 20.27C2.49 20.63 2.83 20.87 3.2 20.87L8.94 20.87C9.06 23.56 11.27 25.72 13.99 25.72C16.72 25.72 18.92 23.56 19.04 20.87L24.79 20.87C25.16 20.87 25.5 20.63 25.61 20.27C25.73 19.91 25.61 19.52 25.31 19.29L25.31 19.29ZM14 23.97C12.24 23.97 10.81 22.59 10.7 20.87L17.29 20.87C17.18 22.59 15.75 23.97 14 23.97L14 23.97ZM5.11 19.12C5.97 17.8 6.91 15.58 6.88 12.24C6.86 9.72 7.64 7.59 9.12 6.09C10.39 4.8 12.13 4.09 14 4.08C15.87 4.09 17.6 4.8 18.87 6.09C20.35 7.59 21.13 9.72 21.11 12.24C21.08 15.59 22.02 17.8 22.89 19.12L5.11 19.12L5.11 19.12Z" fill="#000000" fill-opacity="1.000000" fill-rule="nonzero"/>
	</g>
</svg>
