<svg width="20.000000" height="20.000000" viewBox="0 0 20 20" fill="none" xmlns="http://www.w3.org/2000/svg" xmlns:xlink="http://www.w3.org/1999/xlink">
	<desc>
			Created with Pixso.
	</desc>
	<defs/>
	<path id="Vector" d="M19.53 18.46L15.87 14.81C17.19 13.24 18 11.21 18 9C18 4.03 13.97 0 9 0C4.03 0 0 4.03 0 9C0 13.97 4.03 18 9 18C11.21 18 13.24 17.19 14.8 15.87L18.46 19.53C18.61 19.67 18.8 19.75 18.99 19.75C19.18 19.75 19.38 19.67 19.52 19.53C19.82 19.23 19.82 18.76 19.53 18.46ZM1.5 9C1.5 4.86 4.86 1.5 9 1.5C13.13 1.5 16.5 4.86 16.5 9C16.5 13.13 13.13 16.5 9 16.5C4.86 16.5 1.5 13.13 1.5 9Z" fill="#5C6C79" fill-opacity="1.000000" fill-rule="nonzero"/>
</svg>
