<svg width="24.000000" height="24.000000" viewBox="0 0 24 24" fill="none" xmlns="http://www.w3.org/2000/svg" xmlns:xlink="http://www.w3.org/1999/xlink">
	<desc>
			Created with Pixso.
	</desc>
	<defs/>
	<mask id="mask6_284" mask-type="alpha" maskUnits="userSpaceOnUse" x="0.000000" y="0.000000" width="24.000000" height="24.000000">
		<rect id="Rectangle 10" width="24.000000" height="24.000000" fill="#C4C4C4" fill-opacity="1.000000"/>
	</mask>
	<g mask="url(#mask6_284)">
		<path id="Vector" d="M12.53 2.21L17.53 7.21C17.82 7.51 17.82 7.98 17.53 8.27C17.38 8.42 17.19 8.49 17 8.49C16.8 8.49 16.61 8.42 16.46 8.27L12.75 4.55L12.75 14.74C12.75 15.16 12.41 15.49 12 15.49C11.58 15.49 11.25 15.16 11.25 14.74L11.25 4.55L7.53 8.27C7.23 8.57 6.76 8.57 6.46 8.27C6.17 7.98 6.17 7.51 6.46 7.21L11.47 2.21C11.76 1.92 12.23 1.92 12.53 2.21ZM4.29 21.69L19.7 21.69C20.97 21.69 22 20.66 22 19.4L22 13.74C22 13.33 21.66 12.99 21.25 12.99C20.83 12.99 20.5 13.33 20.5 13.74L20.5 19.4C20.5 19.83 20.14 20.19 19.7 20.19L4.29 20.19C3.85 20.19 3.5 19.83 3.5 19.4L3.5 13.74C3.5 13.33 3.16 12.99 2.75 12.99C2.33 12.99 2 13.33 2 13.74L2 19.4C2 20.66 3.02 21.69 4.29 21.69Z" fill="#536471" fill-opacity="1.000000" fill-rule="evenodd"/>
	</g>
</svg>
