<svg width="24.000000" height="24.000000" viewBox="0 0 24 24" fill="none" xmlns="http://www.w3.org/2000/svg" xmlns:xlink="http://www.w3.org/1999/xlink">
	<desc>
			Created with Pixso.
	</desc>
	<defs/>
	<mask id="mask19_274" mask-type="alpha" maskUnits="userSpaceOnUse" x="0.000000" y="0.000000" width="24.000000" height="24.000000">
		<rect id="Rectangle 10" width="24.000000" height="24.000000" fill="#C4C4C4" fill-opacity="1.000000"/>
	</mask>
	<g mask="url(#mask19_274)">
		<path id="Vector" d="M23.75 15.77C23.46 15.47 22.99 15.47 22.69 15.77L20.47 17.99L20.47 7.75C20.47 5.68 18.79 4 16.72 4L10.87 4C10.46 4 10.12 4.33 10.12 4.75C10.12 5.16 10.46 5.5 10.87 5.5L16.72 5.5C17.96 5.5 18.97 6.51 18.97 7.75L18.97 17.99L16.75 15.77C16.46 15.47 15.99 15.47 15.69 15.77C15.4 16.06 15.4 16.53 15.69 16.83L19.19 20.33C19.34 20.47 19.53 20.55 19.72 20.55C19.92 20.55 20.11 20.47 20.25 20.33L23.75 16.83C24.05 16.53 24.05 16.06 23.75 15.77ZM13.09 19.05L7.24 19.05C6 19.05 4.99 18.04 4.99 16.8L4.99 6.56L7.21 8.78C7.36 8.92 7.55 9 7.75 9C7.94 9 8.13 8.92 8.28 8.78C8.57 8.48 8.57 8.01 8.28 7.72L4.78 4.22C4.48 3.92 4.01 3.92 3.72 4.22L0.22 7.72C-0.08 8.01 -0.08 8.48 0.22 8.78C0.51 9.07 0.98 9.07 1.28 8.78L3.5 6.56L3.5 16.8C3.5 18.86 5.18 20.55 7.25 20.55L13.1 20.55C13.51 20.55 13.85 20.21 13.85 19.8C13.85 19.38 13.51 19.05 13.1 19.05L13.09 19.05Z" fill="#536471" fill-opacity="1.000000" fill-rule="nonzero"/>
	</g>
</svg>
