<svg width="28.000000" height="28.000000" viewBox="0 0 28 28" fill="none" xmlns="http://www.w3.org/2000/svg" xmlns:xlink="http://www.w3.org/1999/xlink">
	<desc>
			Created with Pixso.
	</desc>
	<defs/>
	<mask id="mask6_163" mask-type="alpha" maskUnits="userSpaceOnUse" x="0.000000" y="0.000000" width="28.000000" height="28.000000">
		<rect id="Rectangle 9" width="28.000000" height="28.000000" fill="#C4C4C4" fill-opacity="1.000000"/>
	</mask>
	<g mask="url(#mask6_163)">
		<path id="Vector" d="M1.16 13.7C1.16 20.62 6.79 26.25 13.7 26.25C20.62 26.25 26.25 20.62 26.25 13.7C26.25 6.79 20.62 1.16 13.7 1.16C6.79 1.16 1.16 6.79 1.16 13.7ZM2.91 13.7C2.91 7.75 7.75 2.91 13.7 2.91C19.65 2.91 24.5 7.75 24.5 13.7C24.5 19.65 19.65 24.5 13.7 24.5C7.75 24.5 2.91 19.65 2.91 13.7ZM6.41 13.7C6.41 12.58 7.33 11.66 8.45 11.66C9.58 11.66 10.5 12.58 10.5 13.7C10.5 14.83 9.58 15.75 8.45 15.75C7.33 15.75 6.41 14.83 6.41 13.7ZM11.66 13.7C11.66 12.58 12.58 11.66 13.7 11.66C14.83 11.66 15.75 12.58 15.75 13.7C15.75 14.83 14.83 15.75 13.7 15.75C12.58 15.75 11.66 14.83 11.66 13.7ZM16.91 13.7C16.91 12.58 17.83 11.66 18.95 11.66C20.08 11.66 21 12.58 21 13.7C21 14.83 20.08 15.75 18.95 15.75C17.83 15.75 16.91 14.83 16.91 13.7ZM7.58 13.7C7.58 14.19 7.97 14.58 8.45 14.58C8.94 14.58 9.33 14.19 9.33 13.7C9.33 13.22 8.94 12.83 8.45 12.83C7.97 12.83 7.58 13.22 7.58 13.7ZM12.83 13.7C12.83 14.19 13.22 14.58 13.7 14.58C14.19 14.58 14.58 14.19 14.58 13.7C14.58 13.22 14.19 12.83 13.7 12.83C13.22 12.83 12.83 13.22 12.83 13.7ZM18.08 13.7C18.08 14.19 18.47 14.58 18.95 14.58C19.44 14.58 19.83 14.19 19.83 13.7C19.83 13.22 19.44 12.83 18.95 12.83C18.47 12.83 18.08 13.22 18.08 13.7Z" fill="#000000" fill-opacity="1.000000" fill-rule="evenodd"/>
	</g>
</svg>
