<svg width="24.000000" height="24.000000" viewBox="0 0 24 24" fill="none" xmlns="http://www.w3.org/2000/svg" xmlns:xlink="http://www.w3.org/1999/xlink">
	<desc>
			Created with Pixso.
	</desc>
	<defs/>
	<mask id="mask6_86" mask-type="alpha" maskUnits="userSpaceOnUse" x="-0.999878" y="0.000000" width="24.000000" height="24.000000">
		<rect id="Rectangle 9" x="-0.999878" width="24.000000" height="24.000000" fill="#C4C4C4" fill-opacity="1.000000"/>
	</mask>
	<g mask="url(#mask6_86)">
		<path id="Vector" d="M10.79 8.23C8.7 8.23 7 9.93 7 12.02C7 14.11 8.7 15.81 10.79 15.81C12.88 15.81 14.58 14.11 14.58 12.02C14.58 9.93 12.88 8.23 10.79 8.23ZM10.79 14.31C9.52 14.31 8.5 13.28 8.5 12.02C8.5 10.75 9.53 9.73 10.79 9.73C12.05 9.73 13.08 10.75 13.08 12.02C13.08 13.28 12.05 14.31 10.79 14.31Z" fill="#000000" fill-opacity="1.000000" fill-rule="nonzero"/>
	</g>
	<g mask="url(#mask6_86)">
		<path id="Vector" d="M10.73 22.75L10.01 22.75C8.83 22.75 7.86 21.86 7.75 20.68L7.73 20.53C7.71 20.25 7.53 20 7.26 19.89C6.98 19.77 6.68 19.83 6.46 20.01L6.35 20.1C5.48 20.83 4.1 20.77 3.29 19.96L2.78 19.45C1.94 18.61 1.88 17.3 2.64 16.39L2.74 16.27C2.92 16.05 2.97 15.75 2.86 15.49C2.75 15.22 2.5 15.03 2.21 15.01L2.06 14.99C0.88 14.89 0 13.91 0 12.73L0 12.01C0 10.83 0.88 9.85 2.06 9.75L2.22 9.73C2.5 9.71 2.75 9.53 2.86 9.26C2.97 8.99 2.92 8.69 2.74 8.46L2.64 8.35C1.89 7.44 1.95 6.13 2.78 5.29L3.29 4.78C4.1 3.97 5.48 3.91 6.35 4.64L6.47 4.73C6.69 4.92 7 4.96 7.26 4.86C7.53 4.75 7.71 4.5 7.74 4.21L7.75 4.06C7.86 2.88 8.83 2 10.01 2L10.73 2C11.92 2 12.89 2.88 13 4.06L13.01 4.21C13.03 4.5 13.22 4.75 13.48 4.85C13.76 4.97 14.06 4.92 14.28 4.74L14.4 4.64C15.26 3.91 16.65 3.97 17.46 4.78L17.97 5.29C18.8 6.13 18.86 7.44 18.11 8.35L18.01 8.47C17.82 8.69 17.77 8.99 17.88 9.25C17.99 9.52 18.24 9.7 18.53 9.73L18.68 9.75C19.86 9.85 20.75 10.83 20.75 12.01L20.75 12.73C20.75 13.91 19.86 14.89 18.68 14.99L18.53 15.01C18.24 15.03 18 15.21 17.89 15.48C17.78 15.75 17.82 16.05 18.01 16.27L18.11 16.39C18.86 17.3 18.8 18.61 17.97 19.45L17.46 19.96C16.65 20.77 15.27 20.83 14.4 20.1L14.28 20.01C14.06 19.82 13.75 19.78 13.49 19.88C13.22 20 13.04 20.24 13.01 20.53L13 20.68C12.89 21.85 11.92 22.74 10.73 22.74L10.73 22.75ZM6.96 18.33C7.26 18.33 7.55 18.39 7.83 18.5C8.62 18.83 9.15 19.55 9.23 20.4L9.24 20.54C9.28 20.94 9.61 21.24 10.01 21.24L10.74 21.24C11.14 21.24 11.47 20.94 11.5 20.54L11.52 20.4C11.59 19.55 12.13 18.83 12.91 18.5C13.7 18.17 14.61 18.32 15.24 18.85L15.36 18.95C15.53 19.1 15.72 19.13 15.85 19.13C16.05 19.13 16.25 19.05 16.39 18.9L16.9 18.39C17.19 18.11 17.21 17.66 16.95 17.35L16.85 17.23C16.31 16.58 16.18 15.69 16.5 14.91C16.83 14.12 17.55 13.59 18.39 13.51L18.55 13.5C18.95 13.46 19.25 13.13 19.25 12.73L19.25 12.01C19.25 11.61 18.95 11.28 18.55 11.24L18.4 11.22C17.55 11.15 16.83 10.61 16.5 9.83C16.17 9.04 16.31 8.15 16.85 7.5L16.95 7.39C17.21 7.08 17.19 6.63 16.91 6.35L16.4 5.84C16.25 5.69 16.06 5.61 15.85 5.61C15.72 5.61 15.53 5.64 15.36 5.79L15.24 5.89C14.6 6.42 13.69 6.56 12.92 6.24C12.13 5.92 11.6 5.19 11.52 4.35L11.5 4.19C11.47 3.79 11.14 3.49 10.74 3.49L10.01 3.49C9.61 3.49 9.28 3.79 9.25 4.19L9.23 4.35C9.16 5.19 8.62 5.91 7.84 6.24C7.06 6.57 6.15 6.42 5.51 5.89L5.39 5.79C5.21 5.64 5.03 5.61 4.9 5.61C4.69 5.61 4.5 5.69 4.35 5.84L3.84 6.35C3.56 6.63 3.54 7.08 3.8 7.39L3.9 7.51C4.44 8.16 4.57 9.05 4.25 9.83C3.92 10.62 3.2 11.15 2.35 11.23L2.2 11.24C1.8 11.28 1.5 11.61 1.5 12.01L1.5 12.73C1.5 13.13 1.8 13.46 2.2 13.5L2.35 13.52C3.2 13.59 3.92 14.13 4.25 14.91C4.57 15.7 4.44 16.59 3.89 17.24L3.8 17.35C3.54 17.66 3.56 18.11 3.84 18.39L4.35 18.9C4.5 19.05 4.69 19.13 4.9 19.13C5.03 19.13 5.21 19.1 5.39 18.95L5.51 18.85C5.91 18.52 6.43 18.33 6.96 18.33L6.96 18.33Z" fill="#000000" fill-opacity="1.000000" fill-rule="nonzero"/>
	</g>
</svg>
