<svg width="24.000000" height="24.000000" viewBox="0 0 24 24" fill="none" xmlns="http://www.w3.org/2000/svg" xmlns:xlink="http://www.w3.org/1999/xlink">
	<desc>
			Created with Pixso.
	</desc>
	<defs/>
	<mask id="mask6_93" mask-type="alpha" maskUnits="userSpaceOnUse" x="0.000000" y="-0.371948" width="24.000000" height="24.000000">
		<rect id="Rectangle 10" y="-0.371948" width="24.000000" height="24.000000" fill="#C4C4C4" fill-opacity="1.000000"/>
	</mask>
	<g mask="url(#mask6_93)">
		<path id="Vector" d="M20.22 9.18L18.88 9.18C18.9 9.09 18.91 8.99 18.91 8.9L18.91 6.59C18.91 5.61 18.11 4.81 17.13 4.81L3.5 4.81L3.5 3.37C3.5 2.96 3.16 2.62 2.75 2.62C2.33 2.62 2 2.96 2 3.37L2 20.85C2 21.26 2.33 21.6 2.75 21.6C3.16 21.6 3.5 21.26 3.5 20.85L3.5 19.41L14.05 19.41C15.03 19.41 15.83 18.61 15.83 17.63L15.83 15.32C15.83 15.23 15.81 15.13 15.8 15.04L20.22 15.04C21.2 15.04 22 14.25 22 13.27L22 10.96C22 9.97 21.2 9.18 20.22 9.18L20.22 9.18ZM17.14 6.31C17.29 6.31 17.41 6.43 17.41 6.59L17.41 8.9C17.41 9.05 17.29 9.18 17.13 9.18L3.5 9.18L3.5 6.31L17.14 6.31L17.14 6.31ZM14.33 15.32L14.33 17.63C14.33 17.79 14.2 17.91 14.05 17.91L3.5 17.91L3.5 15.04L14.05 15.04C14.2 15.04 14.33 15.17 14.33 15.32L14.33 15.32ZM20.5 13.27C20.5 13.42 20.37 13.54 20.22 13.54L3.5 13.54L3.5 10.68L20.22 10.68C20.37 10.68 20.5 10.8 20.5 10.95L20.5 13.27Z" fill="#1D9BF0" fill-opacity="1.000000" fill-rule="nonzero"/>
	</g>
</svg>
