<svg width="13.000000" height="17.000000" viewBox="0 0 13 17" fill="none" xmlns="http://www.w3.org/2000/svg" xmlns:xlink="http://www.w3.org/1999/xlink">
	<desc>
			Created with Pixso.
	</desc>
	<defs/>
	<path id="Vector" d="M12.86 10.17C12.55 8.72 10.91 7.25 9.52 6.73L9.06 2.61L10.31 0.74C10.44 0.54 10.45 0.29 10.34 0.08C10.23 -0.12 10.01 -0.25 9.78 -0.25L2.16 -0.25C1.92 -0.25 1.71 -0.12 1.6 0.08C1.48 0.29 1.5 0.55 1.63 0.74L2.88 2.61L2.47 6.73C1.08 7.25 -0.55 8.72 -0.86 10.16C-0.9 10.3 -0.88 10.5 -0.75 10.66C-0.67 10.77 -0.5 10.9 -0.19 10.9L3.19 10.9L5.61 16.49C5.68 16.65 5.83 16.75 6 16.75C6.16 16.75 6.31 16.65 6.38 16.49L8.8 10.9L12.18 10.9C12.49 10.9 12.66 10.77 12.75 10.66C12.87 10.5 12.89 10.3 12.86 10.17L12.86 10.17Z" fill="#536471" fill-opacity="1.000000" fill-rule="nonzero"/>
</svg>
