<svg width="24.000000" height="24.000000" viewBox="0 0 24 24" fill="none" xmlns="http://www.w3.org/2000/svg" xmlns:xlink="http://www.w3.org/1999/xlink">
	<desc>
			Created with Pixso.
	</desc>
	<defs/>
	<mask id="mask19_315" mask-type="alpha" maskUnits="userSpaceOnUse" x="0.000000" y="-0.500000" width="24.000000" height="24.000000">
		<rect id="Rectangle 10" y="-0.500000" width="24.000000" height="24.000000" fill="#C4C4C4" fill-opacity="1.000000"/>
	</mask>
	<g mask="url(#mask19_315)">
		<path id="Vector" d="M23.75 15.27C23.46 14.97 22.99 14.97 22.69 15.27L20.47 17.49L20.47 7.25C20.47 5.18 18.79 3.5 16.72 3.5L10.87 3.5C10.46 3.5 10.12 3.83 10.12 4.25C10.12 4.66 10.46 5 10.87 5L16.72 5C17.96 5 18.97 6.01 18.97 7.25L18.97 17.49L16.75 15.27C16.46 14.97 15.99 14.97 15.69 15.27C15.4 15.56 15.4 16.03 15.69 16.33L19.19 19.83C19.34 19.97 19.53 20.05 19.72 20.05C19.92 20.05 20.11 19.97 20.25 19.83L23.75 16.33C24.05 16.03 24.05 15.56 23.75 15.27ZM13.09 18.55L7.24 18.55C6 18.55 4.99 17.54 4.99 16.3L4.99 6.06L7.21 8.28C7.36 8.42 7.55 8.5 7.75 8.5C7.94 8.5 8.13 8.42 8.28 8.28C8.57 7.98 8.57 7.51 8.28 7.22L4.78 3.72C4.48 3.42 4.01 3.42 3.72 3.72L0.22 7.22C-0.08 7.51 -0.08 7.98 0.22 8.28C0.51 8.57 0.98 8.57 1.28 8.28L3.5 6.06L3.5 16.3C3.5 18.36 5.18 20.05 7.25 20.05L13.1 20.05C13.51 20.05 13.85 19.71 13.85 19.3C13.85 18.88 13.51 18.55 13.1 18.55L13.09 18.55Z" fill="#0CB345" fill-opacity="1.000000" fill-rule="nonzero"/>
	</g>
</svg>
